<svg id="Capa_1" enable-background="new 0 0 512 512" height="512" viewBox="0 0 512 512" width="512" xmlns="http://www.w3.org/2000/svg"><g><g><path d="m91 76-15 30-15-30h-61v120l19.375 15h131.625v-135z" fill="#fb3"/><path d="m151 76h-60l-15 30v105h75z" fill="#f93"/><path d="m76 76h-15v60h15 15v-60z" fill="#fff7cc"/><path d="m76 76h15v60h-15z" fill="#fd9"/></g><path d="m166 211-15 15h-151v-30h151z" fill="#474f54"/><path d="m166 211-15 15h-75v-30h75z" fill="#32393f"/><path d="m220.272 226 20.728 41.455 17.563 35.127 57.442-76.582h-75.005z" fill="none"/><path d="m406.688 76h-45.894c-32.02 0-53.798 32.538-41.616 62.139l23.83 57.861h-102.008-90v30h14.332l-40.113 51.577 23.672 18.428 44.335-57.006 38.502 77.001h-67.222v30h76.494 22.5l89.993-120h1.87l23.201 56.338 27.744-11.426-59.385-144.199c-4.069-9.893 3.173-20.713 13.872-20.713h45.894c7.896 0 14.312 6.416 14.312 14.312 0 4.805-2.373 9.243-6.372 11.909l-15.835 10.547 16.641 24.961 15.835-10.547c12.349-8.232 19.731-22.017 19.731-36.87-.001-24.434-19.879-44.312-44.313-44.312zm-148.125 226.582-17.563-35.127-20.728-41.455h20.728 75.005z" fill="#ff641a"/><path d="m353.493 226h1.87l23.201 56.338 27.744-11.426-59.385-144.199c-4.069-9.893 3.173-20.713 13.872-20.713h45.894c7.896 0 14.312 6.416 14.312 14.312 0 4.805-2.373 9.243-6.372 11.909l-15.835 10.547 16.641 24.961 15.835-10.547c12.349-8.232 19.731-22.017 19.731-36.87-.001-24.434-19.879-44.312-44.313-44.312h-45.894c-32.02 0-53.798 32.538-41.616 62.139l23.83 57.861h-102.008v30h75.005l-57.442 76.582-17.563-35.127v78.545h22.5z" fill="#f03800"/><path d="m91 436c-49.629 0-91-40.371-91-90s41.371-90 91-90 90 40.371 90 90-40.371 90-90 90z" fill="#474f54"/><path d="m91 406c-33.091 0-61-26.909-61-60s27.909-60 61-60 60 26.909 60 60-26.909 60-60 60z" fill="#edf5ff"/><path d="m421 436c-49.629 0-90-40.371-90-90s40.371-90 90-90 91 40.371 91 90-41.371 90-91 90z" fill="#32393f"/><path d="m421 406c-33.091 0-60-26.909-60-60s26.909-60 60-60 61 26.909 61 60-27.909 60-61 60z" fill="#dfe7f4"/><path d="m406 331h30v30h-30z" fill="#32393f"/><path d="m76 331h30v30h-30z" fill="#474f54"/></g></svg>