<svg xmlns="http://www.w3.org/2000/svg" viewBox="0 0 64 64" width="512px" height="512px"><path fill="#faefde" d="M32 4A5 5 0 1 0 32 14A5 5 0 1 0 32 4Z"/><path fill="#8d6c9f" d="M32,15c-3.314,0-6-2.686-6-6s2.686-6,6-6s6,2.686,6,6S35.314,15,32,15z M32,5c-2.209,0-4,1.791-4,4 s1.791,4,4,4s4-1.791,4-4S34.209,5,32,5z"/><path fill="#85cbf8" d="M15.77,15h7.56c0.433,0,0.854,0.14,1.2,0.4L32,21l2.72,17.2c0.127,0.858-0.465,1.656-1.323,1.783 c-0.072,0.011-0.144,0.016-0.217,0.017l0,0c-0.697,0.004-1.311-0.459-1.5-1.13L28,26l-6,10l4.83,7.61 c0.111,0.256,0.169,0.531,0.17,0.81v11.43c0,1.187-0.963,2.15-2.15,2.15l0,0l0,0c-1.065,0.002-1.971-0.777-2.13-1.83L21,45l-5-5 L8.51,56.69C8.202,57.477,7.445,57.996,6.6,58l0,0c-1.104,0.04-2.031-0.823-2.071-1.927C4.522,55.87,4.546,55.666,4.6,55.47L12,29 l6-9h-3l-6.26,6.26C8.284,26.713,7.626,26.898,7,26.75l0,0c-0.987-0.264-1.574-1.277-1.31-2.265c0.073-0.272,0.206-0.523,0.39-0.735 l6.74-7.41C13.57,15.497,14.642,15.011,15.77,15z"/><path fill="#8d6c9f" d="M24.85,59c-1.559,0.008-2.887-1.129-3.12-2.67l-1.67-10.85l-3.74-3.75L9.42,57.1 c-0.514,1.596-2.224,2.474-3.82,1.96s-2.474-2.224-1.96-3.82L11,28.73c0.027-0.1,0.071-0.195,0.13-0.28l5-7.45h-0.72l-6,6 c-1.108,1.11-2.906,1.112-4.016,0.003c-0.333-0.333-0.578-0.743-0.714-1.193c-0.294-0.956-0.058-1.995,0.62-2.73l6.74-7.41 c0.949-1.063,2.306-1.67,3.73-1.67h7.56c0.649,0,1.281,0.211,1.8,0.6l7.47,5.6c0.208,0.155,0.348,0.384,0.39,0.64L35.7,38 c0.243,1.393-0.689,2.719-2.082,2.962C33.473,40.987,33.327,41,33.18,41c-1.143-0.001-2.147-0.76-2.46-1.86l-3-10.65L23.17,36 l4.5,7.09c0.029,0.04,0.053,0.084,0.07,0.13c0.168,0.378,0.257,0.786,0.26,1.2v11.43C27.995,57.587,26.587,58.995,24.85,59z M16,39 c0.266-0.002,0.521,0.103,0.71,0.29l5,5c0.151,0.152,0.249,0.348,0.28,0.56L23.71,56c0.071,0.574,0.561,1.004,1.14,1 c0.633-0.005,1.145-0.517,1.15-1.15V44.42c0-0.116-0.02-0.231-0.06-0.34l-4.78-7.54c-0.179-0.309-0.179-0.691,0-1l6-10 c0.284-0.474,0.898-0.628,1.372-0.345c0.218,0.131,0.379,0.34,0.448,0.585l3.68,12.86c0.07,0.241,0.289,0.407,0.54,0.41 c0.164,0.003,0.319-0.071,0.42-0.2c0.107-0.124,0.154-0.288,0.13-0.45l-2.67-16.84l-7.15-5.36c-0.173-0.13-0.384-0.2-0.6-0.2h-7.56 c-0.848,0.005-1.655,0.368-2.22,1l-6.74,7.39c-0.313,0.35-0.284,0.887,0.066,1.2c0.101,0.091,0.223,0.156,0.354,0.19 c0.287,0.065,0.587-0.018,0.8-0.22l6.26-6.27c0.189-0.187,0.444-0.292,0.71-0.29h3c0.369,0.001,0.707,0.205,0.88,0.53 c0.163,0.318,0.144,0.7-0.05,1l-5.91,8.87L5.57,55.74c-0.06,0.304,0.017,0.618,0.21,0.86c0.402,0.448,1.091,0.485,1.539,0.083 c0.11-0.099,0.199-0.219,0.261-0.353l7.51-16.74c0.135-0.298,0.408-0.511,0.73-0.57L16,39z"/><path fill="#efc88e" d="M32,57h27l-8.65-14.94c-0.772-1.314-2.463-1.754-3.778-0.982c-0.406,0.238-0.744,0.577-0.982,0.982 L42,47h-2.07C36,47,35,48,34,51L32,57z"/><path fill="#8d6c9f" d="M59,58H32c-0.322-0.001-0.623-0.158-0.81-0.42c-0.189-0.26-0.241-0.595-0.14-0.9l2-6 C34.22,46,38.08,46,39.93,46h1.56l3.29-4.57c0.686-1.114,1.912-1.781,3.22-1.75l0,0c1.331,0.003,2.558,0.716,3.22,1.87l8.66,15 c0.179,0.309,0.179,0.691,0,1C59.686,57.845,59.352,58.016,59,58z M33.39,56h23.88l-7.79-13.44c-0.3-0.537-0.865-0.872-1.48-0.88 l0,0c-0.618-0.003-1.192,0.32-1.51,0.85l-3.64,5C42.667,47.823,42.346,48.001,42,48h-2.07c-2.27,0-4.21,0.24-5,3.24L33.39,56z"/><path fill="#8d6c9f" d="M44 45c-.159-.003-.316-.041-.46-.11L34.16 40c-.49-.25-.687-.848-.44-1.34.248-.493.85-.692 1.343-.444.002.001.005.002.007.004l9.4 4.83c.538.13.87.672.74 1.21S44.538 45.13 44 45zM31 38.28c-.157.003-.312-.035-.45-.11l-22-11.28c-.492-.254-.684-.858-.43-1.35.254-.492.858-.684 1.35-.43l22 11.28c.491.253.684.856.432 1.347-.001.001-.001.002-.002.003C31.726 38.076 31.378 38.285 31 38.28zM40 54c-.552 0-1-.448-1-1v-2c0-.552.448-1 1-1s1 .448 1 1v2C41 53.552 40.552 54 40 54zM45 54c-.552 0-1-.448-1-1v-2c0-.552.448-1 1-1s1 .448 1 1v2C46 53.552 45.552 54 45 54zM50 54c-.552 0-1-.448-1-1v-2c0-.552.448-1 1-1s1 .448 1 1v2C51 53.552 50.552 54 50 54z"/></svg>