<svg id="Capa_1" enable-background="new 0 0 497 497" height="512" viewBox="0 0 497 497" width="512" xmlns="http://www.w3.org/2000/svg"><path d="m60 262.5c-4.142 0-7.5 3.357-7.5 7.5v50h15v-50c0-4.143-3.358-7.5-7.5-7.5z" fill="#8c98a7"/><path d="m30 262.5c-4.142 0-7.5 3.357-7.5 7.5v50h15v-50c0-4.143-3.358-7.5-7.5-7.5z" fill="#8c98a7"/><path d="m437 405h-30l60 92h22.5c4.142 0 7.5-3.358 7.5-7.5v-24.5c0-33-27-60-60-60z" fill="#1a64b6"/><path d="m407 405h-112.5l-116 46 70 46h218.5v-32c0-33-27-60-60-60z" fill="#1e8aff"/><path d="m202.5 405h-72.5l20 92h98.5v-82z" fill="#1eb1ee"/><path d="m202.5 405 46 47 46-47z" fill="#dae0e7"/><path d="m128.5 185c-19.33 0-35 15.67-35 35s15.67 35 35 35h120v-70z" fill="#ffeac3"/><path d="m368.5 185h-120v70h120c19.33 0 35-15.67 35-35s-15.67-35-35-35z" fill="#ffd17e"/><path d="m248.5 170v205c66.274 0 120-53.726 120-120v-85z" fill="#ffd17e"/><path d="m128.5 170v85c0 66.274 53.726 120 120 120 49.706 0 90-53.726 90-120v-85z" fill="#ffeac3"/><path d="m248.5 15v150h135v-15c0-74.559-60.441-135-135-135z" fill="#ff4e51"/><path d="m248.5 15c-74.558 0-135 60.441-135 135v15h240v-15c0-74.559-47.01-135-105-135z" fill="#ff7149"/><path d="m211 10.664v154.336h75v-154.336c0-3.51-2.426-6.583-5.858-7.32-10.201-2.191-20.787-3.344-31.642-3.344s-21.441 1.153-31.642 3.344c-3.432.737-5.858 3.81-5.858 7.32z" fill="#ff9441"/><path d="m388.5 155h-30v30h30c8.284 0 15-6.716 15-15s-6.716-15-15-15z" fill="#ff2b59"/><g fill="#ff4e51"><path d="m373.5 170c0-8.284-6.716-15-15-15h-250c-8.284 0-15 6.716-15 15s6.716 15 15 15h250c8.284 0 15-6.716 15-15z"/><path d="m14.275 390.017c-8.068.38-14.275 7.33-14.275 15.407v84.076c0 4.142 3.358 7.5 7.5 7.5h22.5l15-46-15-46c0-8.525-7.111-15.388-15.725-14.983z"/><path d="m135 390c-8.284 0-15 6.716-15 15l-15 46 15 46h30v-92c0-8.284-6.716-15-15-15z"/></g><path d="m105 390c-8.284 0-15 6.716-15 15l-15 46 15 46h30v-92c0-8.284-6.716-15-15-15z" fill="#ff7149"/><path d="m75 390c-8.284 0-15 6.716-15 15l-15 46 15 46h30v-92c0-8.284-6.716-15-15-15z" fill="#ff4e51"/><path d="m30 343h30v154h-30z" fill="#ff7149"/><path d="m45.843 359.988c16.34-.448 29.157-14.265 29.157-30.612v-21.876c0-4.142-3.358-7.5-7.5-7.5h-45c-4.142 0-7.5 3.358-7.5 7.5v22.5c0 16.848 13.889 30.453 30.843 29.988z" fill="#ff4e51"/><path d="m208.5 235c-4.142 0-7.5-3.357-7.5-7.5h-19.5c-4.142 0-7.5-3.357-7.5-7.5s3.358-7.5 7.5-7.5h27c4.142 0 7.5 3.357 7.5 7.5v7.5c0 4.143-3.358 7.5-7.5 7.5z" fill="#341e2e"/><path d="m288.5 235c-4.143 0-7.5-3.357-7.5-7.5v-7.5c0-4.143 3.357-7.5 7.5-7.5h27c4.143 0 7.5 3.357 7.5 7.5s-3.357 7.5-7.5 7.5h-19.5c0 4.143-3.357 7.5-7.5 7.5z" fill="#341e2e"/><path d="m248.5 292.5c-11.447 0-22.209-4.458-30.303-12.553-2.929-2.929-2.929-7.677 0-10.606 2.929-2.928 7.678-2.929 10.606.001 5.261 5.261 12.256 8.158 19.697 8.158s14.436-2.897 19.696-8.159c2.93-2.928 7.678-2.928 10.607 0 2.929 2.93 2.929 7.678 0 10.607-8.094 8.094-18.857 12.552-30.303 12.552z" fill="#ff7149"/></svg>