<svg xmlns="http://www.w3.org/2000/svg" viewBox="0 0 48 48" width="480px" height="480px"><path fill="#4b7bb2" d="M15.898,4.119c-5.776,1.449-10.257,7.76-11.77,13.789c-0.287,1.143-0.475,2.317-0.5,3.5 c-0.029,1.39,0.169,2.773,0.365,4.148c0.506,3.535,1.074,7.23,3.113,10.093c2.341,3.287,3.593,4.786,7.247,6.243 c1.161,0.463,2.325,0.927,3.521,1.277c1.594,0.466,5.84,0.841,7.486,1.015c1.963,0.207,3.983,0.285,5.869-0.319 c2.417-0.775,4.398-2.599,6.11-4.552c2.891-3.297,6.26-7.25,6.908-11.679c0.323-2.208,0.198-4.466-0.124-6.674 c-0.521-3.576-2.02-7.346-4.022-10.321c-3.541-5.262-9.73-6.302-12.005-6.549C24.134,3.657,19.774,3.146,15.898,4.119z"/><path fill="#010101" d="M27.846,44.832c-0.879,0-1.737-0.068-2.537-0.153l-0.851-0.086c-1.988-0.2-5.314-0.534-6.724-0.946 c-1.216-0.355-2.405-0.83-3.556-1.288c-3.694-1.473-5.05-3.009-7.48-6.421c-2.157-3.03-2.711-6.898-3.201-10.312 c-0.196-1.374-0.4-2.795-0.37-4.229c0.024-1.144,0.192-2.325,0.515-3.611c1.433-5.71,5.841-12.573,12.133-14.151 c3.864-0.968,8.222-0.496,12.067-0.077l0.31,0.033c3.147,0.342,8.939,1.676,12.366,6.768c2.082,3.094,3.577,6.932,4.101,10.527 c0.376,2.584,0.417,4.814,0.124,6.818c-0.688,4.709-4.352,8.887-7.026,11.938c-1.516,1.728-3.605,3.824-6.333,4.698 C30.224,44.71,29.016,44.832,27.846,44.832z M20.997,4.065c-1.708,0-3.396,0.142-4.978,0.539l0,0 C10.126,6.082,5.976,12.599,4.613,18.029c-0.304,1.212-0.463,2.32-0.485,3.389c-0.028,1.353,0.169,2.731,0.36,4.065 c0.473,3.301,1.009,7.042,3.025,9.874c2.358,3.312,3.575,4.692,7.025,6.067c1.14,0.454,2.307,0.92,3.477,1.263 c1.32,0.386,4.589,0.714,6.542,0.91l0.856,0.087c1.759,0.186,3.811,0.295,5.665-0.299c2.494-0.799,4.456-2.773,5.886-4.405 c2.592-2.956,6.143-7.006,6.789-11.422c0.279-1.907,0.239-4.043-0.124-6.529c-0.503-3.453-1.94-7.14-3.942-10.113 c-3.201-4.757-8.669-6.009-11.644-6.332l-0.31-0.033C25.586,4.317,23.272,4.065,20.997,4.065z M15.897,4.119h0.01H15.897z"/><path fill="#d6e5e5" d="M15.81,16.107c-0.54-1.478,0.469-3.062,1.544-4.211s2.143-1.637,3.665-2.037 c0.85-0.223,1.729-0.357,2.606-0.317c3.15,0.141,6.167,2.26,6.778,5.353s-1.051,6.497-3.688,8.226 c-0.283,0.186-0.583,0.359-0.806,0.614c-0.39,0.446-0.488,1.08-0.456,1.671c0.049,0.903,0.493,0.719,0.645,1.61 s0.117,1.884-0.44,2.596c-0.45,0.576-1.22,0.883-1.943,0.776s-1.623-0.644-1.886-1.326c-0.203-0.526-0.185-1.108-0.163-1.672 c0.041-1.082-0.097-1.403-0.056-2.485c0.067-1.757,0.219-3.478,1.707-4.414c0.635-0.4,1.417-0.525,2.034-0.952 c0.814-0.563,1.219-1.586,1.25-2.575c0.054-1.742-0.742-3.156-2.459-3.449c-1.09-0.186-2.216,0.238-3.093,0.912 s-1.582,1.281-2.215,2.188c-0.209,0.299-0.435,0.616-0.774,0.75C17.247,17.685,16.11,16.927,15.81,16.107z"/><path fill="#010101" d="M24.005,30.909c-0.122,0-0.243-0.009-0.364-0.027c-0.847-0.125-1.933-0.743-2.279-1.64 c-0.244-0.631-0.219-1.289-0.196-1.871c0.02-0.514-0.003-0.842-0.027-1.188c-0.024-0.357-0.05-0.728-0.028-1.296 c0.06-1.556,0.141-3.686,1.94-4.817c0.343-0.217,0.708-0.355,1.059-0.49c0.351-0.134,0.683-0.261,0.957-0.45 c0.619-0.428,1.006-1.243,1.035-2.18c0.024-0.775-0.126-2.613-2.043-2.94c-0.856-0.146-1.84,0.15-2.704,0.815 c-0.901,0.692-1.536,1.255-2.11,2.077c-0.217,0.311-0.514,0.736-1,0.928c-0.437,0.172-0.961,0.14-1.476-0.09 c-0.648-0.291-1.208-0.864-1.426-1.46l0,0c-0.509-1.394,0.062-3.027,1.648-4.726c1.19-1.271,2.375-1.776,3.902-2.178 c0.998-0.262,1.899-0.375,2.756-0.333c3.571,0.159,6.619,2.58,7.246,5.756c0.626,3.17-1.016,6.846-3.904,8.74l-0.13,0.084 c-0.221,0.143-0.43,0.276-0.574,0.441c-0.315,0.36-0.355,0.914-0.334,1.314c0.018,0.318,0.079,0.398,0.201,0.558 c0.146,0.189,0.345,0.449,0.438,0.995c0.209,1.235,0.023,2.269-0.54,2.988C25.564,30.542,24.79,30.909,24.005,30.909z M23.624,12.973c0.203,0,0.404,0.017,0.601,0.05c1.84,0.314,2.941,1.83,2.875,3.958c-0.039,1.252-0.586,2.363-1.465,2.971 c-0.374,0.259-0.778,0.413-1.169,0.563c-0.321,0.122-0.624,0.238-0.884,0.401c-1.25,0.787-1.407,2.282-1.473,4.011 c-0.02,0.514,0.003,0.842,0.027,1.188c0.024,0.357,0.05,0.728,0.028,1.296c-0.019,0.508-0.039,1.033,0.13,1.473 c0.19,0.493,0.94,0.928,1.494,1.011c0.545,0.073,1.137-0.156,1.476-0.59c0.486-0.621,0.454-1.542,0.341-2.204 c-0.051-0.302-0.132-0.408-0.245-0.555c-0.204-0.265-0.375-0.531-0.406-1.111c-0.046-0.841,0.154-1.542,0.579-2.027 c0.237-0.271,0.529-0.459,0.787-0.625l0.123-0.078c2.561-1.681,4.021-4.923,3.47-7.711c-0.539-2.729-3.192-4.812-6.31-4.951 c-0.754-0.031-1.558,0.066-2.457,0.302c-1.39,0.366-2.396,0.793-3.427,1.895c-0.916,0.979-1.908,2.416-1.439,3.698 c0.126,0.345,0.494,0.711,0.896,0.891c0.267,0.12,0.515,0.147,0.699,0.073c0.207-0.082,0.388-0.341,0.548-0.57 c0.646-0.925,1.367-1.564,2.321-2.298C21.639,13.344,22.66,12.973,23.624,12.973z"/><path fill="#d6e5e5" d="M26.348,34.224c-0.244-0.87-1.543-1.493-2.288-1.634c-0.283-0.054-0.579-0.064-0.857,0.009 c-0.66,0.175-1.085,0.783-1.345,1.385c-0.264,0.61-0.417,1.308-0.173,1.926c0.351,0.885,1.415,1.336,2.408,1.407 c0.318,0.023,0.642,0.016,0.949-0.065C26.076,36.98,26.675,35.391,26.348,34.224z"/><path fill="#010101" d="M24.392,37.828c-0.107,0-0.219-0.005-0.335-0.013c-1.072-0.077-2.38-0.57-2.836-1.723 c-0.26-0.655-0.2-1.432,0.178-2.307c0.391-0.905,0.971-1.482,1.676-1.67c0.322-0.085,0.687-0.09,1.078-0.018 c0.729,0.138,2.343,0.806,2.676,1.99l0,0c0.226,0.807,0.094,1.784-0.345,2.551c-0.325,0.569-0.792,0.958-1.314,1.096 C24.936,37.797,24.679,37.828,24.392,37.828z M23.628,33.047c-0.107,0-0.206,0.012-0.296,0.036c-0.504,0.133-0.83,0.672-1.015,1.1 c-0.269,0.623-0.325,1.142-0.167,1.542c0.286,0.723,1.245,1.04,1.979,1.093c0.316,0.022,0.572,0.008,0.786-0.049 c0.261-0.068,0.51-0.291,0.701-0.625c0.306-0.535,0.404-1.235,0.25-1.785c-0.166-0.592-1.236-1.152-1.899-1.277 C23.847,33.059,23.733,33.047,23.628,33.047z"/></svg>