<svg height="512pt" viewBox="0 0 512 512" width="512pt" xmlns="http://www.w3.org/2000/svg"><path d="m512 120v-120h-188.5l-60 195zm0 0" fill="#76838a"/><path d="m323.5 512h188.5v-60l-248.5-60zm0 0" fill="#636c72"/><path d="m323.5 0h-188.5v120l188.5 75zm0 0" fill="#899ba1"/><path d="m135 452v60h188.5v-130zm0 0" fill="#76838a"/><path d="m323.5 120-60 166 60 166h188.5v-332zm0 0" fill="#a3bbc0"/><path d="m135 120h188.5v332h-188.5zm0 0" fill="#bcdae0"/><path d="m452 180h-128.5l-60 106 60 106h128.5zm0 0"/><path d="m195 180h128.5v212h-128.5zm0 0" fill="#292c32"/><path d="m7.5 104.542969 45 67.5 45-67.5v-104.542969h-90zm0 0" fill="#76838a"/><path d="m37.5 149.542969h30v146.457031h-30zm0 0" fill="#899ba1"/><path d="m0 459.5c0 28.949219 23.550781 52.5 52.5 52.5s52.5-23.550781 52.5-52.5v-203.5h-105zm0 0" fill="#ff451b"/><path d="m437 45h30v30h-30zm0 0"/><path d="m180 45h30v30h-30zm0 0" fill="#292c32"/><path d="m240 45h30v30h-30zm0 0" fill="#292c32"/><path d="m377 45h30v30h-30zm0 0"/><path d="m392 240h-68.5l-20 15 20 15h68.5zm0 0" fill="#899ba1"/><path d="m255 240h68.5v30h-68.5zm0 0" fill="#a3bbc0"/></svg>