<svg height="512" viewBox="0 0 64 64" width="512" xmlns="http://www.w3.org/2000/svg"><g id="Pipe-Plumbering-Home_Repair-Water-Blocked" data-name="Pipe-Plumbering-Home Repair-Water-Blocked"><path d="m37 43v2a16 16 0 1 1 -32 0v-36h10v36a6.009 6.009 0 0 0 6 6 6 6 0 0 0 6-6v-2z" fill="#5aaae7"/><path d="m36.86 47.08a16 16 0 0 1 -31.65.51h.01a2.857 2.857 0 0 0 2.35 1.36c2.78 0 2.78-3.9 5.57-3.9a2.562 2.562 0 0 1 1.94.88 5.993 5.993 0 0 0 5.24 5.03 5.07 5.07 0 0 0 .68.04 6.022 6.022 0 0 0 5.52-3.63c1.63.93 2.03 3.58 4.33 3.58 2.79 0 2.79-3.9 5.57-3.9a3.043 3.043 0 0 1 .44.03z" fill="#898890"/><path d="m51 21h10v10h-10z" fill="#5aaae7"/><rect fill="#3d9ae2" height="14" rx="2" width="6" x="45" y="19"/><path d="m45 21v10h-2a6 6 0 0 0 -6 6h-10a16.021 16.021 0 0 1 16-16z" fill="#5aaae7"/><rect fill="#3d9ae2" height="6" rx="2" width="14" x="25" y="37"/><rect fill="#3d9ae2" height="6" rx="2" width="14" x="3" y="3"/><path d="m27 43h10v2h-10z" fill="#479fe3"/><path d="m5 9h10v2h-10z" fill="#479fe3"/><path d="m20.31 51.02a2.965 2.965 0 1 1 -.31-.02c.1 0 .21.01.31.02z" fill="#57565c"/><path d="m16.76 56.05a2.028 2.028 0 0 1 .24.95 2.006 2.006 0 0 1 -2 2 2 2 0 0 1 -2-2 2 2 0 0 1 3.76-.95z" fill="#57565c"/><g fill="#787680"><path d="m23 60a2 2 0 1 1 2-2 2 2 0 0 1 -2 2z"/><path d="m26 54h2v2h-2z"/><path d="m10 51h2v2h-2z"/></g></g></svg>