<?xml version="1.0" standalone="no"?>
<!DOCTYPE svg PUBLIC "-//W3C//DTD SVG 20010904//EN"
 "http://www.w3.org/TR/2001/REC-SVG-20010904/DTD/svg10.dtd">
<svg version="1.0" xmlns="http://www.w3.org/2000/svg"
 width="935.000000pt" height="885.000000pt" viewBox="0 0 935.000000 885.000000"
 preserveAspectRatio="xMidYMid meet">
<metadata>
Created by potrace 1.16, written by Peter Selinger 2001-2019
</metadata>
<g transform="translate(0.000000,885.000000) scale(0.100000,-0.100000)"
fill="#000000" stroke="none">
<path d="M4038 8541 c-34 -40 -54 -116 -41 -151 7 -19 7 -46 0 -86 -14 -77
-12 -136 7 -172 42 -80 284 -167 326 -117 7 8 21 15 30 15 27 0 107 62 177
138 53 57 65 65 80 56 16 -10 18 -24 15 -122 -2 -61 2 -129 7 -150 16 -57 73
-109 170 -156 74 -35 95 -41 151 -41 79 0 113 21 167 105 20 30 48 66 62 80
33 31 59 86 59 123 -1 35 -51 75 -178 141 -110 57 -175 82 -286 106 -113 24
-153 41 -231 97 -88 63 -219 114 -381 148 -98 20 -106 19 -134 -14z m275 -91
c51 -17 114 -43 142 -58 47 -25 95 -80 95 -107 0 -25 -83 -137 -128 -170 -66
-51 -110 -60 -191 -40 -97 24 -162 62 -185 108 -17 35 -17 46 -7 109 6 38 25
96 41 129 l30 59 56 0 c35 0 89 -11 147 -30z m634 -257 c61 -27 121 -61 149
-86 43 -38 46 -43 42 -81 -7 -61 -56 -151 -106 -198 -43 -39 -46 -40 -98 -35
-63 7 -183 66 -219 109 -36 42 -48 101 -42 197 10 162 69 183 274 94z"/>
<path d="M7237 8176 c-76 -32 -146 -85 -145 -111 0 -11 -7 -37 -16 -59 -10
-21 -15 -40 -12 -43 8 -8 116 7 116 16 0 5 28 21 63 37 53 25 74 29 147 29 92
0 180 -29 180 -59 0 -19 41 -31 75 -22 20 5 24 10 17 23 -5 9 -7 24 -5 34 7
26 -80 109 -152 145 -84 41 -186 45 -268 10z"/>
<path d="M1965 7940 c-3 -5 -13 -10 -22 -10 -26 0 -135 -84 -201 -154 -43 -47
-76 -95 -108 -162 -63 -128 -63 -168 -5 -282 38 -75 46 -86 88 -104 60 -26 99
-15 171 48 29 25 54 45 55 43 2 -2 8 -16 14 -31 11 -25 10 -27 -22 -38 -21 -7
-64 -44 -118 -101 -69 -73 -90 -89 -113 -89 -22 0 -42 -13 -79 -50 -43 -44
-54 -50 -90 -50 -38 0 -46 -6 -150 -110 l-109 -109 29 -60 c15 -33 49 -81 75
-106 42 -41 48 -44 60 -30 12 14 17 12 47 -17 26 -25 32 -38 28 -58 -5 -22 15
-46 160 -190 l165 -165 115 115 c97 96 115 120 115 145 0 24 12 42 50 80 38
38 50 56 50 80 0 25 16 46 91 120 50 50 95 101 100 114 l9 23 45 -41 c24 -22
55 -43 70 -47 26 -6 85 12 85 27 0 4 21 11 47 15 38 6 58 17 101 58 69 65 119
134 138 190 15 44 15 46 -16 118 -18 40 -40 82 -50 93 -10 11 -20 40 -23 65
-11 103 -121 270 -222 340 -40 28 -50 30 -118 28 l-75 -3 -58 45 c-33 25 -87
82 -122 125 -116 146 -115 145 -160 145 -22 0 -44 -4 -47 -10z m147 -170 c133
-37 173 -205 69 -293 -47 -39 -102 -53 -151 -38 -166 50 -175 269 -13 326 47
17 49 17 95 5z"/>
<path d="M8481 7856 c6 -21 9 -258 7 -588 -3 -608 -2 -591 -65 -634 -24 -16
-53 -20 -211 -24 l-182 -5 15 -22 c16 -22 21 -23 192 -23 198 0 222 6 263 67
l25 37 0 575 c0 529 -1 579 -17 608 -25 46 -38 50 -27 9z"/>
<path d="M6544 7833 c-25 -81 -71 -138 -125 -154 l-39 -12 0 -384 0 -383 25 0
c36 0 99 -61 124 -120 l22 -50 219 0 220 0 0 560 0 560 -220 0 c-201 0 -221
-2 -226 -17z m226 -360 c15 -80 19 -85 88 -113 34 -14 62 -28 62 -32 0 -3 -29
-22 -64 -42 l-63 -35 -6 -66 c-2 -36 -8 -69 -11 -72 -3 -4 -21 7 -39 23 -76
70 -67 67 -142 49 -38 -8 -70 -13 -73 -11 -2 3 9 34 26 69 l30 65 -20 33 c-11
19 -29 49 -40 67 l-21 34 80 -7 79 -7 43 51 c24 28 47 51 51 51 5 0 14 -26 20
-57z"/>
<path d="M7080 7290 l0 -560 275 0 275 0 0 560 0 560 -275 0 -275 0 0 -560z
m498 278 l-3 -83 -205 0 -205 0 -3 83 -3 82 211 0 211 0 -3 -82z"/>
<path d="M7720 7290 l0 -560 239 0 239 0 12 33 c22 55 59 103 95 123 l35 19 0
382 0 382 -29 15 c-39 21 -76 66 -96 121 l-18 45 -238 0 -239 0 0 -560z m230
214 c64 -26 87 -91 55 -154 -17 -32 -61 -60 -95 -60 -29 0 -76 26 -94 52 -35
50 -10 138 47 162 42 19 40 19 87 0z"/>
<path d="M6300 6614 c52 -56 26 -54 860 -54 423 0 770 3 770 6 0 3 -5 14 -10
25 -10 19 -30 19 -791 19 -678 0 -784 2 -816 15 l-37 16 24 -27z"/>
<path d="M895 5654 c-104 -47 -191 -87 -193 -89 -3 -3 282 -643 290 -651 5 -4
379 163 391 175 9 9 -273 643 -288 647 -6 2 -95 -35 -200 -82z m132 -179 c15
-32 15 -36 0 -53 -24 -26 -22 -36 14 -77 45 -51 63 -59 97 -41 26 13 31 13 56
-7 35 -28 28 -49 -25 -73 -40 -18 -41 -18 -86 7 -50 26 -99 81 -132 146 -27
54 -27 74 4 107 32 35 52 33 72 -9z"/>
<path d="M8535 5619 c-105 -45 -193 -84 -197 -87 -4 -4 10 -46 30 -93 l37 -86
194 83 c107 46 195 85 197 86 1 2 -14 42 -35 90 l-37 87 -189 -80z"/>
<path d="M1180 5682 c0 -4 65 -153 145 -331 80 -177 145 -333 145 -345 0 -13
-8 -30 -17 -38 -10 -8 -107 -55 -216 -103 -131 -59 -194 -92 -188 -98 7 -7 78
20 213 80 186 83 204 94 221 126 l18 35 -153 341 c-133 298 -168 366 -168 333z"/>
<path d="M8450 4990 l0 -100 215 0 215 0 0 100 0 100 -215 0 -215 0 0 -100z"/>
<path d="M3066 4596 c-51 -19 -102 -70 -121 -120 -9 -27 -25 -183 -45 -446
-16 -223 -59 -793 -95 -1267 -68 -890 -69 -907 -32 -957 13 -18 21 -11 102 90
l87 109 -28 5 c-29 5 -29 6 -26 65 9 188 173 2260 179 2266 7 6 3733 -277
3741 -285 3 -4 -142 -1960 -152 -2042 l-5 -41 180 -87 c179 -86 254 -116 127
-50 -38 19 -68 38 -68 42 0 5 39 510 86 1123 47 613 83 1137 81 1165 -12 119
-114 233 -232 258 -29 6 -185 18 -925 71 -190 14 -366 27 -392 30 l-48 6 0
-51 0 -51 -47 6 c-27 3 -295 23 -598 45 -721 53 -1606 118 -1675 125 -35 3
-69 0 -94 -9z"/>
<path d="M1422 4363 c-13 -2 -43 -23 -66 -46 -61 -59 -66 -95 -26 -189 31 -76
118 -211 135 -212 30 -3 158 234 158 291 0 105 -95 179 -201 156z m106 -109
c12 -14 22 -32 22 -40 0 -8 5 -14 10 -14 22 0 8 -44 -24 -76 -24 -24 -43 -34
-65 -34 -39 0 -87 24 -101 49 -12 23 -13 58 -2 63 4 2 14 16 22 33 31 59 94
68 138 19z"/>
<path d="M4035 4068 c-2 -7 -6 -52 -10 -100 l-6 -88 25 0 c24 0 26 4 26 41 0
41 0 41 31 35 17 -3 36 -6 41 -6 6 0 8 -18 6 -40 -3 -35 -1 -40 18 -40 18 0
22 8 28 53 3 28 6 73 6 100 0 40 -3 47 -20 47 -15 0 -20 -7 -20 -27 0 -44 -13
-55 -51 -48 -33 6 -34 8 -31 46 4 34 2 39 -17 39 -12 0 -23 -6 -26 -12z"/>
<path d="M4280 4048 c-31 -17 -50 -53 -50 -99 0 -65 58 -105 125 -88 61 17 86
113 43 164 -27 31 -82 41 -118 23z"/>
<path d="M4606 3978 c-3 -29 -6 -75 -6 -101 l0 -48 57 3 c69 4 83 25 23 34
-30 5 -40 11 -36 21 4 8 6 17 6 19 0 2 14 4 31 4 24 0 30 4 27 18 -2 10 -14
18 -31 20 -19 2 -27 9 -27 23 0 15 7 19 35 19 23 0 35 5 35 14 0 18 -22 26
-69 26 l-38 0 -7 -52z"/>
<path d="M5014 3990 c-57 -23 -74 -121 -29 -165 39 -40 98 -37 138 6 74 80 -8
200 -109 159z"/>
<path d="M5189 3968 c0 -7 -4 -50 -7 -95 -7 -79 -7 -82 15 -86 21 -4 23 0 24
42 1 83 11 87 47 17 24 -46 40 -65 57 -68 22 -5 24 -2 30 51 3 31 8 75 10 99
4 39 3 42 -20 42 -23 0 -25 -3 -25 -49 0 -28 -4 -52 -8 -55 -4 -3 -23 22 -41
55 -26 47 -37 59 -57 59 -13 0 -24 -6 -25 -12z"/>
<path d="M5639 3928 c0 -13 -4 -58 -7 -100 -7 -77 -7 -78 15 -78 20 0 23 5 24
38 1 20 4 48 8 60 5 21 10 16 41 -42 27 -50 40 -66 57 -66 25 0 30 19 35 125
3 66 2 70 -19 73 -22 3 -23 0 -23 -57 0 -34 -3 -61 -7 -61 -5 0 -23 29 -42 65
-27 53 -38 65 -57 65 -18 0 -24 -6 -25 -22z"/>
<path d="M5859 3908 c0 -13 -4 -58 -7 -100 l-7 -76 57 -4 c53 -3 68 3 68 27 0
2 -17 6 -39 10 -32 5 -38 10 -34 26 4 13 14 19 34 19 40 0 39 29 -1 37 -21 4
-30 11 -30 26 0 17 5 19 35 14 29 -5 35 -3 35 12 0 13 -10 21 -31 25 -60 12
-79 8 -80 -16z"/>
<path d="M7666 3255 c-81 -327 -146 -601 -143 -608 8 -20 70 -47 94 -41 25 7
662 -152 683 -170 20 -18 120 -41 129 -30 5 5 75 276 156 603 l148 594 -24 18
c-13 11 -40 23 -59 28 -159 43 -803 201 -817 201 -16 0 -39 -85 -167 -595z
m567 270 c50 -21 104 -70 130 -119 28 -53 30 -164 4 -217 -56 -113 -181 -170
-298 -135 -140 40 -213 187 -164 327 19 54 76 115 130 140 49 23 148 25 198 4z
m-411 -562 c38 -18 46 -57 21 -91 -16 -21 -30 -28 -66 -30 -44 -3 -47 -5 -53
-38 -4 -24 -12 -34 -25 -34 -23 0 -23 -6 1 93 30 121 34 129 67 121 16 -4 40
-13 55 -21z m146 -35 c5 -7 13 -61 17 -120 6 -92 5 -108 -8 -108 -17 0 -27 21
-27 55 0 17 -7 24 -32 29 -27 5 -35 2 -57 -24 -17 -20 -30 -27 -39 -22 -9 6 4
33 50 105 63 96 76 108 96 85z"/>
<path d="M3436 3759 c-11 -105 -10 -107 19 -79 14 13 25 30 25 37 0 8 5 11 11
8 5 -4 18 0 28 9 9 9 -9 -38 -41 -103 -60 -123 -73 -169 -82 -306 l-6 -80 28
90 c51 159 153 392 180 409 17 10 32 -46 38 -144 5 -74 11 -100 22 -105 18 -7
14 -14 46 75 28 82 34 107 35 159 l1 35 35 -34 c19 -19 47 -51 61 -72 15 -21
31 -38 37 -38 12 0 2 139 -10 150 -4 4 -89 15 -188 24 -99 9 -192 19 -206 22
-25 5 -26 3 -33 -57z"/>
<path d="M4162 3620 c-80 -54 -144 -138 -178 -232 -10 -30 -11 -38 -1 -31 6 5
44 34 82 64 97 77 97 76 67 8 -32 -74 -24 -94 33 -94 30 0 39 4 41 20 1 11 7
67 13 125 6 58 14 122 17 143 3 21 2 37 -4 37 -5 0 -37 -18 -70 -40z"/>
<path d="M5921 3364 c-7 -85 -11 -157 -9 -159 2 -3 84 -12 182 -21 243 -23
239 -26 251 157 7 102 6 107 -16 128 -12 11 -30 21 -38 21 -9 0 -81 7 -161 15
-80 8 -157 15 -171 15 l-26 0 -12 -156z m177 80 c42 -12 26 -34 -23 -32 -50 3
-70 -11 -80 -54 -5 -21 -1 -33 19 -52 33 -34 66 -35 66 -2 0 16 -7 26 -21 29
-29 8 -14 27 21 27 37 0 41 -8 34 -64 -7 -46 -7 -46 -45 -46 -53 0 -85 17
-103 55 -40 84 36 164 132 139z m185 -33 c45 -43 28 -143 -27 -166 -61 -26
-112 3 -123 69 -15 95 84 159 150 97z"/>
<path d="M2053 3385 c-57 -24 -57 -74 0 -163 l34 -54 31 49 c46 72 52 94 37
130 -12 29 -41 54 -62 53 -4 -1 -22 -7 -40 -15z"/>
<path d="M3355 2933 c-4 -43 -13 -125 -20 -183 -8 -58 -11 -108 -7 -112 17
-16 137 -15 202 2 74 19 90 26 90 41 0 11 -83 11 -134 -1 l-39 -9 49 50 c60
61 51 81 -21 44 -27 -13 -51 -22 -53 -20 -3 2 12 43 32 91 42 101 46 126 16
99 -11 -10 -34 -41 -52 -69 l-33 -51 -5 92 c-3 50 -8 94 -11 98 -4 3 -10 -29
-14 -72z"/>
<path d="M4140 2875 c-13 -63 -26 -115 -29 -115 -4 0 -24 27 -46 59 -22 33
-41 58 -42 57 -2 -1 8 -45 22 -96 13 -52 23 -95 22 -97 -1 -1 -26 16 -55 38
-28 22 -52 36 -52 32 0 -4 16 -34 35 -66 19 -32 35 -60 35 -62 0 -1 -20 3 -45
11 -57 17 -60 1 -9 -40 27 -21 50 -29 93 -33 l58 -6 6 44 c13 92 39 369 35
379 -2 6 -14 -41 -28 -105z"/>
<path d="M3266 2404 c-3 -33 -8 -93 -12 -134 l-6 -75 59 -13 c45 -10 703 -66
973 -84 l45 -3 12 140 c6 77 10 140 10 141 -1 0 -218 17 -482 38 -264 21 -505
40 -536 43 l-57 6 -6 -59z"/>
<path d="M5132 2163 c-7 -75 -11 -137 -9 -138 1 -1 218 -19 482 -39 264 -21
505 -40 536 -43 l55 -5 11 138 c6 77 10 140 9 140 -1 2 -1047 84 -1062 84 -7
0 -15 -52 -22 -137z m188 32 c9 -11 16 -13 24 -5 17 17 75 12 88 -9 11 -19 12
-19 39 1 24 18 30 19 55 6 38 -17 47 -78 15 -100 -18 -13 -30 -14 -73 -9 -4 1
-10 10 -13 22 l-7 21 -22 -21 c-28 -26 -58 -27 -81 -1 -12 14 -21 17 -25 9
-10 -15 -76 -23 -85 -9 -4 6 -4 33 0 60 7 48 8 50 40 50 18 0 38 -7 45 -15z"/>
<path d="M3387 1917 c-15 -28 -57 -89 -93 -135 -37 -46 -65 -84 -63 -86 2 -2
132 -13 289 -24 363 -28 1964 -155 1967 -156 1 -1 -1 -20 -4 -44 -5 -39 -8
-42 -37 -43 -47 -2 82 -14 509 -48 483 -38 497 -40 489 -53 -4 -7 -2 -8 4 -4
7 4 9 25 5 55 -3 27 -3 61 1 75 13 51 138 90 221 68 32 -8 36 -8 21 1 -60 38
-187 132 -235 175 l-57 50 -1479 111 c-814 61 -1487 111 -1495 111 -8 0 -27
-24 -43 -53z"/>
<path d="M1534 533 c-240 -274 -444 -506 -452 -515 -14 -17 16 -18 619 -18
l635 0 152 222 152 221 -42 36 c-23 20 -166 146 -318 280 -151 134 -282 251
-291 258 -15 13 -62 -37 -455 -484z"/>
<path d="M7810 393 c-157 -140 -298 -266 -315 -279 l-30 -24 50 -45 50 -44
565 -1 564 0 -40 42 c-23 24 -146 158 -274 298 -128 140 -244 267 -259 281
l-26 26 -285 -254z"/>
</g>
</svg>
